<?xml version="1.0" encoding="iso-8859-1"?>
<!-- Generator: Adobe Illustrator 16.0.0, SVG Export Plug-In . SVG Version: 6.00 Build 0)  -->
<!DOCTYPE svg PUBLIC "-//W3C//DTD SVG 1.1//EN" "http://www.w3.org/Graphics/SVG/1.1/DTD/svg11.dtd">
<svg version="1.1" id="Capa_1" xmlns="http://www.w3.org/2000/svg" xmlns:xlink="http://www.w3.org/1999/xlink" x="0px" y="0px"
	 width="566.1px" height="566.1px" viewBox="0 0 566.1 566.1" style="enable-background:new 0 0 566.1 566.1;" xml:space="preserve"
	>
<g>
	<g>
		<path d="M262.968,202.725L180.731,0l-107.1,42.075l84.15,206.55C186.468,223.763,222.806,208.462,262.968,202.725z"/>
		<path d="M492.469,42.075L387.281,0l-82.238,202.725c40.163,3.825,76.5,21.038,105.188,45.9L492.469,42.075z"/>
		<circle cx="284.006" cy="393.975" r="95.625"/>
		<path d="M284.006,221.85c-95.625,0-172.125,76.5-172.125,172.125S188.381,566.1,284.006,566.1s172.125-76.5,172.125-172.125
			S377.719,221.85,284.006,221.85z M284.006,508.725c-63.112,0-114.75-51.637-114.75-114.75c0-63.112,51.638-114.75,114.75-114.75
			s114.75,51.637,114.75,114.75C398.756,457.088,347.118,508.725,284.006,508.725z"/>
	</g>
</g>
<g>
</g>
<g>
</g>
<g>
</g>
<g>
</g>
<g>
</g>
<g>
</g>
<g>
</g>
<g>
</g>
<g>
</g>
<g>
</g>
<g>
</g>
<g>
</g>
<g>
</g>
<g>
</g>
<g>
</g>
</svg>
